#!OML:ASF F:\VICON\USERDATA\INSTALL\rory3\rory3.ASF
:FULLY-SPECIFIED
:DEGREES
90
root 0.49502147150868725 17.840373536222064 35.17428626370876 -3.1543816903874347 -4.3211518260830335 -2.143853150624019
lfemur -17.79809898430481 -3.7090561346682107 -19.606050566506568
ltibia 24.026036575655155
lfoot -3.0510954948174493 -4.227978889970864
ltoes -3.3667038068341193
rfemur 2.752552897866364 3.1160774325977223 25.85700043067857
rtibia 49.11808736369217
rfoot 3.108876622184461 -1.4628861312501282
rtoes 5.0583248870608895
lowerback 9.42080830476579 2.559735437684224 2.381111703618434
upperback 0.6596749286923149 3.763815140517171 0.8750568185935351
thorax -4.29567162107016 1.825318231523084 -1.2355315088431338
lowerneck -16.25039493911825 -2.9898256957939044 -1.5799310968068578
upperneck 21.447499412848376 -3.950354798166373 0.7212887271756251
head 9.554750240709405 -1.8723393561827577 -0.08968310058156151
lclavicle -1.951735342282624e-15 9.081552963972577e-16
lhumerus -35.83206394360218 5.842648808767313 81.44512408368523
lradius 26.02232871806476
lwrist 2.612824327471073
lhand -26.552894659492207 21.06483484966612
lfingers 7.12502
lthumb -0.10924227407986098 50.87543491928573
rclavicle -1.955030842506535e-15 9.064493370753714e-16
rhumerus -26.302388626054274 -16.13623454472586 -80.49899932610553
rradius 27.083820507770668
rwrist 4.268755556026075
rhand -18.367450045503652 24.265331970814653
rfingers 7.12502
rthumb 7.7867541902168345 -5.672877204900886
91
root 0.57414034594395 17.896059217356715 35.74798740940465 -3.563959090408905 -5.574044383154259 -1.3866639030264178
lfemur -15.4694471785369 -3.499265807074807 -20.930071312865824
ltibia 25.341052885161844
lfoot -4.8901278564146775 -2.190552001267182
ltoes -3.0168998249711634
rfemur -3.318063865722033 3.3073793858071463 23.738802601994912
rtibia 58.1977545973154
rfoot 9.485742527838372 -2.205257810290475
rtoes 10.735119931092871
lowerback 9.706012094434287 2.7345410129585934 1.9379436479368803
upperback 0.644995365489794 3.9357801587720473 0.6530356890507538
thorax -4.3709405844598965 1.940272772330201 -1.2239585851974195
lowerneck -16.167765908511896 -2.9778294766995264 -1.6634748309386655
upperneck 21.647664707135906 -3.9399481011940316 0.8113337527816762
head 9.655721996828875 -1.8596170774876641 -0.056690170961571335
lclavicle -1.951791836838438e-15 9.081026854451972e-16
lhumerus -36.04808754938717 5.886553158664108 81.49740999969961
lradius 27.230838355085833
lwrist 5.74524382100135
lhand -26.70322347923281 21.01393716894952
lfingers 7.12502
lthumb 0.05424028877822196 51.07845952436327
rclavicle -1.9540987785709707e-15 9.073759252789354e-16
rhumerus -26.806340593088745 -16.737495375677693 -80.44088143592654
rradius 26.61738863525125
rwrist 4.856785679866291
rhand -17.979418070186682 23.359336634756776
rfingers 7.12502
rthumb 8.154341773930621 -6.542971339663985
92
root 0.6318183663128176 17.946633966912106 36.36812395064738 -3.6012020668705045 -5.98458784269306 0.22978743243993804
lfemur -12.571765428846966 -3.599397709353219 -23.128212161452627
ltibia 24.33974551379144
lfoot -7.269456127515592 -0.044223995658671966
ltoes -2.7570526090419896
rfemur -9.177613422729767 3.0616181144766244 21.46137579881222
rtibia 65.46056856251556
rfoot 9.304208832187722 -4.519904293234232
rtoes 10.501894115867593
lowerback 9.891765977879267 2.6036971154131563 0.4590010443327782
upperback 0.7223238411451031 3.394587466098316 0.1298712541921372
thorax -4.434418726186067 1.7434017019675319 -0.7418046827826975
lowerneck -16.382463510434558 -2.8314906144373353 -1.6273503108615932
upperneck 21.617966342915697 -3.713760428409471 0.7896095589339472
head 9.656173829933783 -1.7630007633790925 -0.03833394177951058
lclavicle -1.95109885844728e-15 9.08740236186145e-16
lhumerus -35.25239851750706 4.712481472410853 81.95425146021563
lradius 28.58777491555611
lwrist 7.322664747507
lhand -26.586974866643494 21.946498506441532
lfingers 7.12502
lthumb 0.23435974690349493 51.8137396011201
rclavicle -1.95033466603977e-15 9.108382585303965e-16
rhumerus -26.86777898027745 -16.96633586213672 -80.66959435099763
rradius 26.005700365307927
rwrist 5.573632292111509
rhand -17.806685034318924 22.915345925946134
rfingers 7.12502
rthumb 8.380007581694368 -6.870822752052375
93
root 0.6527162542681382 17.958019226208627 36.97699566929262 -3.8201883478184833 -5.60875176918233 0.4031093286878935
lfemur -9.99412222751144 -3.5544650646979905 -23.668263525773757
ltibia 23.792145217761338
lfoot -9.612295578712747 0.9190775541397092
ltoes -1.9141769546837175
rfemur -13.756013587701966 2.2519268373731904 21.36364401192323
rtibia 69.48501483678041
rfoot 4.126388403776774 -7.289694441595422
rtoes 7.246293297477877
lowerback 10.16140466950814 2.099504752644841 0.18437205921300337
upperback 0.8779518696878909 2.822731951469594 0.277647581350595
thorax -4.529376281663746 1.442823456351357 -0.3974511454524591
lowerneck -16.25742089749898 -2.724580234646262 -1.7555683360553704
upperneck 21.61762795829595 -3.530598150388482 0.7932863202480382
head 9.655324597286292 -1.6880023439332466 0.0032383320261293036
lclavicle -1.9524584622947337e-15 9.074880000877592e-16
lhumerus -34.4419576061299 3.1548267745921805 82.38553430164075
lradius 29.65536598696506
lwrist 6.958023571213818
lhand -26.224020406335356 23.38278419762487
lfingers 7.12502
lthumb 0.6058308614022248 53.70873795941081
rclavicle -1.9517783464747295e-15 9.096337556016461e-16
rhumerus -26.911315679454624 -17.122299369503565 -80.70930068574081
rradius 25.326027846001622
rwrist 6.623665696751033
rhand -17.43100116732579 22.01456846263188
rfingers 7.12502
rthumb 8.817177662156828 -7.631169645113603
94
root 0.6560102176621234 17.956207685750744 36.965801265179834 -3.9407547811632098 -4.81053894973689 0.3884774994746043
lfemur -7.9822640804377745 -3.6657381410483083 -24.023108526547002
ltibia 23.75408271432186
lfoot -11.227107646157354 1.342413864103331
ltoes -1.0999014382562362
rfemur -17.375898798769498 1.585948921502609 21.873732478995024
rtibia 70.32439048138265
rfoot 0.22451686894400602 -8.278659868033179
rtoes 7.923713387484421
lowerback 10.274609139315396 1.580299215543984 0.05604791023774891
upperback 1.0302897608706232 2.103573184497389 0.4762591153399718
thorax -4.533064032019701 1.0712058498949484 0.05431311579923204
lowerneck -16.128161533189136 -2.651581175790587 -1.9725886017057035
upperneck 21.734929976131326 -3.394874409500135 0.8579327475192714
head 9.714504252248355 -1.6345098279075865 0.06053068150225205
lclavicle -1.952193394065681e-15 9.077320839837968e-16
lhumerus -33.23557515352806 2.4228193585678786 82.23206268541321
lradius 30.32933622709781
lwrist 6.511675962868237
lhand -25.931249227723182 24.440882176002248
lfingers 7.12502
lthumb 0.6906373583003871 54.890759338508126
rclavicle -1.9543401426830766e-15 9.071462233274863e-16
rhumerus -27.226626367835603 -17.680898314927816 -80.55099455312761
rradius 24.89784227078262
rwrist 7.386348768525058
rhand -17.23887884420687 21.76300949112813
rfingers 7.12502
rthumb 9.02126519768086 -8.091467553788997
95
root 0.6652166176885147 17.963815476350042 37.18627837077639 -3.7190510879407945 -3.5822785560197175 0.7808113268923087
lfemur -5.550334247241674 -3.8346025891471243 -24.814464686954274
ltibia 22.265001244536364
lfoot -12.505715852909532 1.6296185705709056
ltoes -1.3284467554703587
rfemur -20.79063324947622 0.7201476889799792 21.55054788916618
rtibia 68.3041988456292
rfoot -2.6274347373723304 -8.001438183535537
rtoes 9.197941333126558
lowerback 10.27653486748205 0.9973272184587835 -0.2889349628176314
upperback 1.0123325689067566 1.1948801998950092 0.5145647062358838
thorax -4.47760582794957 0.6227963259219902 0.5438228216641031
lowerneck -16.006478908498078 -2.627813367015812 -2.1547854628647958
upperneck 21.782722233956548 -3.3261835703146896 0.9064352015866786
head 9.717615570231999 -1.609496620433897 0.10977395853453631
lclavicle -1.9519511393569154e-15 9.079551956543756e-16
lhumerus -31.72862304639099 1.4470932894807418 82.1041867036767
lradius 30.970764767827276
lwrist 6.341027270770188
lhand -25.722088865637623 25.91192927854776
lfingers 7.12502
lthumb 0.8421818333955855 56.08608978526959
rclavicle -1.9547169670374728e-15 9.067759386140521e-16
rhumerus -27.75364933876237 -18.03064577458621 -80.31364134686686
rradius 24.82173069794226
rwrist 6.860509627822685
rhand -17.020099497715876 21.725686844106942
rfingers 7.12502
rthumb 9.266515114259855 -8.375780442965743
96
root 0.6541610601483905 17.930159064405814 37.72309497396969 -3.6444287980772616 -2.3274050462877516 0.9957992082993403
lfemur -3.201487905290872 -4.050829195481477 -25.25436851993277
ltibia 20.81365516640691
lfoot -13.067470564896565 1.2832239184271514
ltoes -0.455902370891184
rfemur -23.57741743941414 0.38153845175891377 21.70642670695666
rtibia 63.99937135339654
rfoot -5.5066093806643295 -8.180336140807006
rtoes 7.1345063445549375
lowerback 10.34808113206208 0.514077566726484 -0.5370910633817825
upperback 1.034952067571017 0.6519173807749635 0.7136486726437967
thorax -4.495772375842351 0.35690878028947887 1.1063248505513348
lowerneck -16.046754747741744 -2.6728208896598 -2.4865968272830568
upperneck 21.84974507418236 -3.359423183669385 1.0732746068405845
head 9.731637304284591 -1.6216522566076397 0.1968749099874778
lclavicle -1.951774322601479e-15 9.081185910513056e-16
lhumerus -30.38616993644553 0.36115564109766346 82.10172537609454
lradius 31.62334892572222
lwrist 6.573536884980275
lhand -26.051515476790485 25.569633394228653
lfingers 7.12502
lthumb 0.6904961301486188 55.927178526999086
rclavicle -1.9557602583460727e-15 9.059759646870326e-16
rhumerus -28.484871749245222 -17.93259218200489 -80.11658914993316
rradius 25.085207464975117
rwrist 5.683283664705829
rhand -16.972755213103103 21.814457709440628
rfingers 7.12502
rthumb 9.343893859282451 -8.217825867214202
